<svg xmlns="http://www.w3.org/2000/svg" viewBox="0 0 512 512" role="img" aria-label="xmoney">
  <rect width="512" height="512" rx="96" fill="#0f172a"/>
  <g transform="translate(256,256) scale(1.75)">
    <path d="M 5,-99.87 A 100,100 0 0 1 99.87,-5 L 54.77,-5 A 55,55 0 0 0 5,-54.77 Z" fill="#ffffff" stroke="#DA291C" stroke-width="4"/>
    <path d="M 99.87,5 A 100,100 0 0 1 5,99.87 L 5,54.77 A 55,55 0 0 0 54.77,5 Z" fill="#5AA83F" stroke="#DA291C" stroke-width="4"/>
    <path d="M -5,99.87 A 100,100 0 0 1 -99.87,5 L -54.77,5 A 55,55 0 0 0 -5,54.77 Z" fill="#ffffff" stroke="#DA291C" stroke-width="4"/>
    <path d="M -99.87,-5 A 100,100 0 0 1 -5,-99.87 L -5,-54.77 A 55,55 0 0 0 -54.77,-5 Z" fill="#DA291C" stroke="#DA291C" stroke-width="4"/>
  </g>
</svg>
